Coordinates
version=1
nRows=23
nColumns=38
inDegrees=no

Units are S.I. units (second, meters, Newtons, ...)
If the header above contains a line with 'inDegrees', this indicates whether rotational values are in degrees (yes) or radians (no).

endheader
time	pelvis_tilt	pelvis_list	pelvis_rotation	pelvis_tx	pelvis_ty	pelvis_tz	hip_flexion_r	hip_adduction_r	hip_rotation_r	knee_angle_r	ankle_angle_r	subtalar_angle_r	mtp_angle_r	hip_flexion_l	hip_adduction_l	hip_rotation_l	knee_angle_l	ankle_angle_l	subtalar_angle_l	mtp_angle_l	lumbar_extension	lumbar_bending	lumbar_rotation	arm_flex_r	arm_add_r	arm_rot_r	elbow_flex_r	pro_sup_r	wrist_flex_r	wrist_dev_r	arm_flex_l	arm_add_l	arm_rot_l	elbow_flex_l	pro_sup_l	wrist_flex_l	wrist_dev_l
1.32	-0.738805	1.4839	-0.683782	0.666924	0.139924	1.05441	0.425643	0.0192235	0.0281139	0.616281	-0.218619	0	0	-0.262056	-0.0632617	-0.201754	0.274557	-0.0904559	0	0	-0.402443	0.0796057	0.11697	0.131879	-0.635071	0.801632	0.826695	0.810674	0	0	0.133741	-0.271741	0.587327	0.635408	0.696559	0	0
1.33	-0.785567	1.48786	-0.636729	0.668202	0.129433	1.05225	0.431707	0.0184756	0.0218966	0.584958	-0.203469	0	0	-0.263723	-0.0638443	-0.204592	0.281632	-0.0857233	0	0	-0.395849	0.0797149	0.116819	0.128347	-0.634864	0.798676	0.828018	0.812098	0	0	0.131205	-0.272329	0.585798	0.636425	0.700057	0	0
1.34	-0.834367	1.49094	-0.587404	0.669425	0.118756	1.05009	0.436287	0.0184088	0.0157923	0.555232	-0.187362	0	0	-0.266123	-0.0650564	-0.206914	0.288881	-0.0808978	0	0	-0.389259	0.0803822	0.116864	0.12366	-0.634946	0.794535	0.830312	0.813765	0	0	0.128221	-0.272828	0.583355	0.638034	0.702936	0	0
1.35	-0.880779	1.49286	-0.540263	0.670594	0.107885	1.04798	0.439016	0.0191676	0.010557	0.527007	-0.171285	0	0	-0.269677	-0.0669962	-0.208961	0.296334	-0.0755627	0	0	-0.383142	0.0818138	0.117136	0.117822	-0.635367	0.789103	0.833624	0.816215	0	0	0.124755	-0.273176	0.579817	0.640289	0.704777	0	0
1.36	-0.920231	1.49408	-0.499981	0.671719	0.09686	1.04591	0.440474	0.0205265	0.00583021	0.502013	-0.157252	0	0	-0.274262	-0.0691335	-0.211163	0.303476	-0.0714551	0	0	-0.377544	0.0835994	0.117313	0.111589	-0.636178	0.783723	0.837677	0.81884	0	0	0.121165	-0.274493	0.578113	0.643109	0.707138	0	0
1.37	-0.953077	1.49463	-0.466154	0.672791	0.0856335	1.04386	0.440796	0.0223978	0.00166706	0.481721	-0.145686	0	0	-0.279719	-0.0716349	-0.212977	0.310891	-0.0684955	0	0	-0.372137	0.0857872	0.117265	0.105413	-0.63692	0.779285	0.841372	0.820701	0	0	0.117499	-0.276648	0.578614	0.645682	0.710494	0	0
1.38	-0.976294	1.49429	-0.441604	0.673808	0.0741755	1.04187	0.439688	0.0247688	-0.00149387	0.467009	-0.135251	0	0	-0.286144	-0.0750015	-0.214369	0.319171	-0.0652947	0	0	-0.367458	0.0883804	0.117301	0.0986323	-0.637354	0.774424	0.844794	0.822324	0	0	0.113781	-0.278264	0.578585	0.647629	0.712895	0	0
1.39	-0.993756	1.49352	-0.422122	0.674836	0.0624696	1.03993	0.438969	0.027109	-0.00306999	0.461872	-0.127111	0	0	-0.292937	-0.0792548	-0.215388	0.327946	-0.0626008	0	0	-0.363047	0.0912164	0.116839	0.0915479	-0.637286	0.769539	0.847762	0.823889	0	0	0.109821	-0.279427	0.577746	0.648949	0.713853	0	0
1.4	-1.00822	1.49259	-0.405614	0.675795	0.0506025	1.03798	0.439629	0.0299146	-0.00144445	0.467219	-0.122979	0	0	-0.299609	-0.084169	-0.216463	0.337717	-0.0604293	0	0	-0.358517	0.0940956	0.116215	0.0843263	-0.637164	0.76495	0.850964	0.825487	0	0	0.10555	-0.280594	0.576623	0.650149	0.713836	0	0
1.41	-1.02232	1.4914	-0.389522	0.676617	0.0385974	1.03602	0.441693	0.0336527	0.0033509	0.482304	-0.122989	0	0	-0.305674	-0.0900179	-0.217702	0.349293	-0.0586904	0	0	-0.353654	0.0971806	0.11552	0.0768852	-0.637057	0.76044	0.854615	0.826907	0	0	0.101029	-0.282088	0.575771	0.651482	0.713353	0	0
1.42	-1.03274	1.48962	-0.377733	0.677226	0.0264144	1.03405	0.444412	0.0390773	0.0111047	0.506995	-0.124835	0	0	-0.311339	-0.0968151	-0.220535	0.363357	-0.0568076	0	0	-0.348777	0.100533	0.115775	0.0685034	-0.637248	0.755132	0.859189	0.828298	0	0	0.0964836	-0.283964	0.576052	0.653146	0.712371	0	0
1.43	-1.03479	1.48711	-0.374118	0.677746	0.0140001	1.03218	0.445142	0.0458084	0.0203527	0.534255	-0.126376	0	0	-0.317179	-0.104738	-0.223705	0.379262	-0.0560753	0	0	-0.344178	0.104327	0.116084	0.0597415	-0.637292	0.750125	0.863686	0.829444	0	0	0.0919425	-0.286242	0.57753	0.654797	0.711305	0	0
1.44	-1.02974	1.48431	-0.377363	0.678229	0.00137414	1.0304	0.444562	0.0528023	0.028455	0.560718	-0.12686	0	0	-0.322629	-0.11332	-0.226909	0.396975	-0.0564255	0	0	-0.339758	0.108248	0.116223	0.0508298	-0.636975	0.745621	0.867646	0.830909	0	0	0.0873625	-0.288808	0.580012	0.656251	0.710027	0	0
1.45	-1.01918	1.48106	-0.386092	0.678672	-0.0113966	1.0288	0.444299	0.0594566	0.0339259	0.58544	-0.129074	0	0	-0.327634	-0.12268	-0.229716	0.416957	-0.0578608	0	0	-0.335922	0.112409	0.116373	0.0421421	-0.636312	0.741663	0.870847	0.83262	0	0	0.082846	-0.291182	0.582717	0.657147	0.708092	0	0
1.46	-1.00119	1.47688	-0.40208	0.67907	-0.0243223	1.02752	0.443442	0.0662213	0.0370215	0.606754	-0.137464	0	0	-0.33223	-0.13315	-0.231905	0.439351	-0.0611904	0	0	-0.333437	0.11708	0.116215	0.0340913	-0.63493	0.737664	0.872966	0.83294	0	0	0.0782846	-0.293079	0.584358	0.657284	0.705926	0	0
1.47	-0.981697	1.47195	-0.419556	0.679379	-0.0374274	1.02654	0.441002	0.0732499	0.0388615	0.624602	-0.151881	0	0	-0.335452	-0.144897	-0.233789	0.465118	-0.0666772	0	0	-0.331643	0.122111	0.116229	0.026427	-0.63295	0.734076	0.874141	0.83273	0	0	0.073877	-0.294701	0.585765	0.656585	0.703723	0	0
1.48	-0.965273	1.46668	-0.434429	0.679594	-0.0506668	1.02579	0.435442	0.0801332	0.0408366	0.637165	-0.168751	0	0	-0.336369	-0.157565	-0.235689	0.494965	-0.0743006	0	0	-0.329853	0.127198	0.116863	0.0192018	-0.630573	0.7314	0.8743	0.832467	0	0	0.0696779	-0.29596	0.587249	0.654966	0.701603	0	0
1.49	-0.952013	1.46132	-0.447016	0.679708	-0.0640158	1.02524	0.425997	0.0863946	0.0433201	0.643035	-0.18485	0	0	-0.334508	-0.170903	-0.238545	0.529664	-0.0841956	0	0	-0.327797	0.13209	0.118357	0.0123909	-0.628085	0.729745	0.873874	0.831876	0	0	0.0656454	-0.296787	0.588861	0.652425	0.69964	0	0
1.5	-0.944038	1.45636	-0.454875	0.679734	-0.0774657	1.02482	0.414038	0.0914958	0.0440002	0.643289	-0.200397	0	0	-0.32868	-0.184996	-0.24227	0.570474	-0.0968431	0	0	-0.324833	0.13649	0.120451	0.00581856	-0.62532	0.72905	0.872775	0.830703	0	0	0.0618414	-0.297202	0.590746	0.648757	0.698007	0	0
1.51	-0.947818	1.45186	-0.450838	0.67968	-0.0910463	1.02454	0.402655	0.0961814	0.0403664	0.642917	-0.215168	0	0	-0.317413	-0.200713	-0.245289	0.618042	-0.112852	0	0	-0.320112	0.14069	0.122574	-0.000350896	-0.62146	0.729483	0.86978	0.828985	0	0	0.0584276	-0.297076	0.592941	0.643119	0.696819	0	0
1.52	-0.96824	1.44773	-0.428905	0.679646	-0.104787	1.02448	0.394451	0.101119	0.0308823	0.646835	-0.227828	0	0	-0.29914	-0.218785	-0.245842	0.672254	-0.132763	0	0	-0.312991	0.145343	0.123818	-0.00565775	-0.615535	0.731375	0.863035	0.826613	0	0	0.0557865	-0.296044	0.595552	0.634276	0.696341	0	0
1.53	-0.980942	1.44265	-0.416057	0.67955	-0.1182	1.02498	0.387842	0.107324	0.0196324	0.657181	-0.238335	0	0	-0.278248	-0.23737	-0.245676	0.730859	-0.157333	0	0	-0.308119	0.150255	0.126612	-0.00893419	-0.610257	0.735148	0.855578	0.823251	0	0	0.0546745	-0.2939	0.598177	0.624077	0.696252	0	0
1.54	-0.974918	1.43647	-0.423073	0.679485	-0.131249	1.02614	0.379734	0.113929	0.0078272	0.669926	-0.24666	0	0	-0.257122	-0.255172	-0.243796	0.791172	-0.18708	0	0	-0.307537	0.155153	0.13084	-0.0105928	-0.606647	0.740106	0.849457	0.819054	0	0	0.0550243	-0.2913	0.600671	0.614302	0.696426	0	0
